<?xml version="1.0"?>
<svg xmlns="http://www.w3.org/2000/svg" xmlnsXlink="http://www.w3.org/1999/xlink" xmlnsSvgjs="http://svgjs.com/svgjs" version="1.1" width="512" height="512" x="0" y="0" viewBox="0 0 24 24" style="enable-background:new 0 0 512 512" xml:space="preserve"><g><path xmlns="http://www.w3.org/2000/svg" d="m15 15.625a4.25 4.25 0 0 0 -8.5 0 1.5 1.5 0 0 0 3 0 1.25 1.25 0 0 1 2.5 0c0 .625-1.192 1.519-2.15 2.237-1.57 1.178-3.35 2.513-3.35 4.638a1.5 1.5 0 0 0 1.5 1.5h5.5a1.5 1.5 0 0 0 0-3h-2.8c.31-.254.645-.5.955-.737 1.565-1.178 3.345-2.513 3.345-4.638z" fill="#0f0e17" data-original="#000000"/><path xmlns="http://www.w3.org/2000/svg" d="m22.5 11a1.5 1.5 0 0 0 -1.5 1.5v4.5h-.75a1.252 1.252 0 0 1 -1.25-1.25v-3.25a1.5 1.5 0 0 0 -3 0v3.25a4.255 4.255 0 0 0 4.25 4.25h.75v2.5a1.5 1.5 0 0 0 3 0v-10a1.5 1.5 0 0 0 -1.5-1.5z" fill="#0f0e17" data-original="#000000"/><path xmlns="http://www.w3.org/2000/svg" d="m22.293 2.707-1.323 1.323a12 12 0 0 0 -19.47 13.781 1.5 1.5 0 1 0 2.624-1.455 8.992 8.992 0 0 1 14.71-10.19l-1.127 1.127a1 1 0 0 0 .707 1.707h4.586a1 1 0 0 0 1-1v-4.586a1 1 0 0 0 -1.707-.707z" fill="#0f0e17" data-original="#000000"/></g></svg>
